<?xml version="1.0"?>
<svg xmlns="http://www.w3.org/2000/svg" width="428" height="458" viewBox="0 0 428 458" fill="none" style="background-color:transparent;">
  <path d="M427.37 121.48C427.37 75.46 386.41 30.45 368.79 13.24C360.17 4.82002 346.15 4.81002 337.53 13.24C326.87 23.66 307.64 44.28 294.13 69.14C273.96 44.53 254.65 24.5 240.94 11.1C226.08 -3.42999 201.9 -3.42999 187.04 11.1C167.25 30.44 135.84 63.56 106.98 104.34C100.68 97.01 94.84 90.99 90.45 86.7C81.83 78.28 67.81 78.28 59.19 86.7C41.58 103.92 0.610001 148.93 0.610001 194.95C0.610001 223.18 16.46 247.78 39.73 260.32C26.29 364.02 109.19 458.66 213.99 457.92C353.51 454.91 425.79 317.09 370.78 193.58C403.21 185.65 427.36 156.35 427.36 121.51L427.37 121.48ZM74.83 106.39C88.52 120.1 124.04 159.14 124.04 194.93C124.04 222.06 101.97 244.14 74.83 244.14C47.69 244.14 25.62 222.07 25.62 194.93C25.62 159.13 61.14 120.1 74.83 106.39ZM214 432.9C125.96 433.36 55.64 355.87 64.07 268.35C108.26 275.19 149.41 239.69 149.04 194.93C149.04 169.89 136.91 145.15 123.01 125.02C152.71 81.82 186.46 46.62 204.53 28.96C207.14 26.41 210.57 25.13 214 25.13C217.43 25.13 220.86 26.41 223.47 28.96C237.17 42.36 259.9 65.84 283.05 95.26C267.61 140.85 296.78 189.69 344.49 195.17C357.81 226.1 364.52 255.27 364.52 282.38C364.52 365.37 297 432.9 214 432.9ZM353.17 170.69C326.04 170.69 303.96 148.62 303.96 121.48C303.96 85.68 339.48 46.65 353.17 32.94C366.86 46.65 402.38 85.69 402.38 121.48C402.38 148.61 380.31 170.69 353.17 170.69ZM283.52 260.62L247.47 248.39L270.15 200.9C283.12 173.61 247.99 148.88 226.68 170.36L133.97 264.25C127.46 270.85 124.81 280.18 126.89 289.21C128.97 298.24 135.42 305.48 144.16 308.57L179.9 321.21L156.12 368.27C146.68 386.16 160.54 407.51 180.24 407.49C187.08 407.49 193.85 404.79 199.16 399.51L293.87 305.22C308.02 291.48 302.3 266.74 283.52 260.62ZM276.23 287.5L181.52 381.79C181.518 381.792 181.516 381.794 181.514 381.796C181.024 382.286 180.354 382.956 179.02 381.98C177.694 381.013 178.118 380.165 178.427 379.545L178.43 379.54L206.78 323.45C211.22 315.07 206.76 303.99 197.77 301L152.49 284.99C151.17 284.59 150.74 282.74 151.76 281.8L244.47 187.91C244.474 187.906 244.478 187.902 244.483 187.897C244.971 187.408 245.631 186.748 246.96 187.69C248.3 188.63 247.89 189.49 247.59 190.11L220.59 246.64C216.37 255.06 220.98 265.97 229.95 268.83L275.49 284.28C276.83 284.67 277.27 286.55 276.23 287.49V287.5Z" fill="black"/>
  <path d="M276.23 287.5L181.52 381.79L181.514 381.796C181.024 382.286 180.354 382.956 179.02 381.98C177.694 381.013 178.118 380.165 178.427 379.545L178.43 379.54L206.78 323.45C211.22 315.07 206.76 303.99 197.77 301L152.49 284.99C151.17 284.59 150.74 282.74 151.76 281.8L244.47 187.91L244.483 187.897C244.971 187.408 245.631 186.748 246.96 187.69C248.3 188.63 247.89 189.49 247.59 190.11L220.59 246.64C216.37 255.06 220.98 265.97 229.95 268.83L275.49 284.28C276.83 284.67 277.27 286.55 276.23 287.49V287.5Z" fill="#E2F961"/>
  <path fill-rule="evenodd" clip-rule="evenodd" d="M214 432.9C125.96 433.36 55.64 355.87 64.07 268.35C108.26 275.19 149.41 239.69 149.04 194.93C149.04 169.89 136.91 145.15 123.01 125.02C152.71 81.82 186.46 46.62 204.53 28.96C207.14 26.41 210.57 25.13 214 25.13C217.43 25.13 220.86 26.41 223.47 28.96C237.17 42.36 259.9 65.84 283.05 95.26C267.61 140.85 296.78 189.69 344.49 195.17C357.81 226.1 364.52 255.27 364.52 282.38C364.52 365.37 297 432.9 214 432.9ZM247.47 248.39L283.52 260.62C302.3 266.74 308.02 291.48 293.87 305.22L199.16 399.51C193.85 404.79 187.08 407.49 180.24 407.49C160.54 407.51 146.68 386.16 156.12 368.27L179.9 321.21L144.16 308.57C135.42 305.48 128.97 298.24 126.89 289.21C124.81 280.18 127.46 270.85 133.97 264.25L226.68 170.36C247.99 148.88 283.12 173.61 270.15 200.9L247.47 248.39Z" fill="#48A0FF"/>
  <path d="M353.17 170.69C326.04 170.69 303.96 148.62 303.96 121.48C303.96 85.68 339.48 46.65 353.17 32.94C366.86 46.65 402.38 85.69 402.38 121.48C402.38 148.61 380.31 170.69 353.17 170.69Z" fill="#1D3397"/>
  <path d="M74.83 106.39C88.52 120.1 124.04 159.14 124.04 194.93C124.04 222.06 101.97 244.14 74.83 244.14C47.69 244.14 25.62 222.07 25.62 194.93C25.62 159.13 61.14 120.1 74.83 106.39Z" fill="#1D3397"/>
</svg>
